<?xml version="1.0" encoding="UTF-8"?>
<svg xmlns="http://www.w3.org/2000/svg" xmlns:xlink="http://www.w3.org/1999/xlink" viewBox="0 0 1536 1024">
  <defs>
    <style>
      .cls-1 {
        fill: url(#linear-gradient-2);
      }

      .cls-2 {
        fill: #514121;
      }

      .cls-3 {
        fill: #705a2e;
      }

      .cls-4 {
        fill: #44371b;
      }

      .cls-5 {
        fill: url(#linear-gradient);
      }

      .cls-6 {
        fill: #001a42;
      }
    </style>
    <linearGradient id="linear-gradient" x1="768.14" y1="20.84" x2="768.14" y2="944.83" gradientTransform="translate(-.16 .24)" gradientUnits="userSpaceOnUse">
      <stop offset="0" stop-color="#f5e6c8"/>
      <stop offset=".18" stop-color="#e8d566"/>
      <stop offset=".4" stop-color="#d4af37"/>
      <stop offset=".68" stop-color="#a68a4d"/>
      <stop offset="1" stop-color="#6b5a2e"/>
    </linearGradient>
    <linearGradient id="linear-gradient-2" x1="768.14" y1="-1.69" x2="768.14" y2="1182.7" xlink:href="#linear-gradient"/>
  </defs>
  <g id="Layer_9" data-name="Layer 9">
    <path class="cls-6" d="M845.15,568.26c-.63.23.15.37-.15.52-.25.12,3.87.53,3.85.59,1.74.34-2.77-1.54,3.33-2.6,43.03-9.03,93.84-21.2,132.36-45.71,48.22-30.47,67.87-119.97,70.79-162.14,1.43-14.94,7.84-34.61,17.92-47.49,14.79-19.79,38.58-32.34,55.35-47.72,5.16-6.14,13.28-13.93,6.81-10.37-11.21,5.74-38.66,24.1-47.41,33.19-13.77,13.54-31.97,24.75-40.15,43.15-10.36,21.65-9.72,44.7-14.38,67.48-4.07,20.67-7.96,45.59-19.69,63.07-14.02,21.01-29.78,41.82-50.39,58.03-8.6,6.9-17.27,11.66-27.13,17.18-8.56,4.78-17.13,8.96-26.73,12.56-21.09,8.02-43,13.3-63.37,19.95l-1.02.32Z"/>
  </g>
  <g id="Layer_10" data-name="Layer 10">
    <path class="cls-6" d="M686.43,571.39c.63.23,1.1.42,1.4.56.25.12-.33-3.21-.3-3.15-1.74.34-5.54,2.48-11.64,1.42-43.03-9.03-93.84-21.2-132.36-45.71-48.22-30.47-67.87-119.97-70.79-162.14-1.43-14.94-7.84-34.61-17.92-47.49-14.79-19.79-38.58-32.34-55.35-47.72-5.16-6.14-13.28-13.93-6.81-10.37,11.21,5.74,40.23,18.13,48.97,27.21,13.77,13.54,33.97,20.94,42.15,39.33,10.36,21.65,6.16,54.49,10.82,77.27,4.07,20.67,7.96,45.59,19.69,63.07,14.02,21.01,29.78,41.82,50.39,58.03,8.6,6.9,17.27,11.66,27.13,17.18,8.56,4.78,17.13,8.96,26.73,12.56,21.09,8.02,47.46,13.28,67.84,19.92l.07.03Z"/>
  </g>
  <g id="Layer_3" data-name="Layer 3">
    <path class="cls-4" d="M782.49,968.99c-12.34,12.97-31.01,17.49-42.47,5.88-61.29-63.69-279.21-271.57-331.1-385.9-25.89-57.05-44.97-106.61-51.63-192.94-3-38.95-4.86-77.47-5.4-110.96-.36-19.59-.89-86.23-.89-87.05,0,0,32.42,37.47,47.51,49.65,16.17,13.62,34.72,31.59,50.06,45.33,10.12,9.1,9.67,27.56,13.01,34.02,2.85,5.07,3.42,9.83,3.56,15.5.16,37.74,2.9,114.15,54.84,170.19,33.68,35.68,85.83,55.41,134.19,56.66,11.86.42,48.09-5.01,48.09-5.01.02.04-23.59,12.8-32.09,15.85-20.53,6.55-41.44,10.39-64.43,10.46-15.51-.08-30.73-2.48-44.82-7.36-48.34-16.92-84.62-59.43-105.11-105.47-10.65-23.37-15.97-43.55-18.73-68.51-2.3-30.14-4.67-68.91-20.23-95.34-6.21-11.09-25.52-46.7-26.16-45.75-.36.54-5.65,53.29-5.33,65.71,5.22,71.13,16.58,167.33,53.16,238.35,28.7,55.72,71.5,109.84,114.84,157.24,29.51,32.49,59.95,58.47,90.55,89.43,24.22,23.41,51.32,53.2,76.13,74.17"/>
  </g>
  <g id="Layer_7" data-name="Layer 7">
    <path class="cls-4" d="M770.31,586.96l-18.34,314.09-30.36-26.12,4.99.12c2.16.05,4.33-.52,6.09-1.78,2.2-1.57,4-3.67,5.16-6.43,1.4-3.29,1.87-8.17,2.05-9.87l30.41-270.02Z"/>
  </g>
  <g id="Layer_8" data-name="Layer 8">
    <path class="cls-2" d="M866.63,812.67l-35.06,32.89-33.15,27.67c-2.56,1.88-4.83,2.83-6.44,6.3-1.45,3.12,1.32,2.19,1.32,2.19,0,0,1.05,13.19,12.54,0,11.49-13.19,17.01-18.9,17.01-18.9l37.15-38.43,58.39-61.3,29.03-30.41-80.78,79.98Z"/>
  </g>
  <g id="Layer_5" data-name="Layer 5">
    <path class="cls-4" d="M253.84,42.71l501,507.37c2.95,2.95,10.84,1.61,14.69,0h0S253.84,42.71,253.84,42.71Z"/>
  </g>
  <g id="Layer_6" data-name="Layer 6">
    <path class="cls-3" d="M1146.19,280.11s-19.55,18.99-32.26,35.55c-10.58,13.42-14.27,37.14-15.1,53.93-1.19,14.74-3.82,38.64-6.52,54.34-5.14,25.2-15.08,53.15-26.53,78.85-6.09,13.66-19.83,28.77-30.22,38-40.33,35.82-96.47,51.26-151.55,41.72-13.19-2.28-40.21-13.37-40.21-13.37l18.59,3.86s15.78,1.58,25.33-.33c128.34-25.72,154.22-118.95,163.78-212.83,1.89-18.56,12.31-33.79,27.28-48.08,17.77-17,39.38-36.47,57.46-52.98,6.13-5.48,12.22-11.02,18.53-15.85"/>
  </g>
  <g id="Layer_2" data-name="Layer 2">
    <path class="cls-5" d="M253.85,42.7c103.98,67.92,245.81,163.7,356.89,237.21,48.24,32.13,93.49,62.25,140.23,93.38,9.07,6.09,18.5,10,18.5,10.01,0,.05,8.43-3.11,17.55-9.45,138.31-92.7,298.17-199.9,433.77-290.79,33.19-21.88,50.12-34.38,61.37-40.62-12.95,14.59-38.66,38.36-80.93,81.06-134.01,133.25-285.63,284.22-421.18,419-4.97,5.02-10.52,7.56-10.52,7.57,0,.06-5.59-2.51-10.62-7.61-10.23-10.13-19.89-19.62-30.64-30.27C581.06,366.21,393.79,182.7,253.84,42.71h0Z"/>
    <path class="cls-1" d="M859.1,564.41s17.72-4,27.27-5.91c128.34-25.72,154.22-118.95,163.78-212.83,1.89-18.56,12.31-33.79,27.28-48.08,17.77-17,39.38-36.47,57.46-52.98,6.13-5.48,12.22-11.02,18.53-15.85,5.6-4.5,13.68-11.91,13.68-11.91,0,0,.45,12.46.83,17.42,11.74,175.02-22.82,323.06-131.68,461.03-12.69,16.75-21.47,27.91-34.98,42.8-61.65,65.71-161.19,171.41-217.96,230.84-12.34,12.97-16.82,9.28-28.28-2.33-61.29-63.69-279.21-271.57-331.1-385.9-25.89-57.05-44.97-106.61-51.63-192.94-3-38.95-4.86-77.47-5.4-110.96-.36-19.59-.88-61.07-.88-61.89,0,0,20.8,20.85,35.89,33.04,16.17,13.62,34.64,30.56,49.97,44.3,10.12,9.1,21.37,20.04,24.7,26.5,2.85,5.07,3.42,9.83,3.56,15.5.16,37.74,2.9,114.15,54.84,170.19,33.68,35.68,85.83,55.41,134.19,56.66,11.86.42,33.08,3.26,33.08,3.26.02.04-8.59,4.53-17.08,7.57-20.53,6.55-41.44,10.39-64.43,10.46-15.51-.08-30.73-2.48-44.82-7.36-48.34-16.92-84.62-59.43-105.11-105.47-10.65-23.37-15.97-43.55-18.73-68.51-2.3-30.14-7.77-61.41-23.32-87.85-6.21-11.09-30.41-33.83-31.06-32.88-.36.54,2.34,32.92,2.67,45.34,5.22,71.13,16.58,167.33,53.16,238.35,28.7,55.72,71.5,109.84,114.84,157.24,29.51,32.49,59.95,58.47,90.55,89.43,24.22,23.41,51.32,53.2,76.13,74.17,16.41,13.62,13.33-20.13,15.1-28.24,6.1-73.78,12.69-218.9,20.14-269.68.05-.32,1.1,7.28,1.28,9.86,1.65,21.63,3.18,44.25,4.94,71.25,4.03,63.19,11.29,138.69,15.25,199.06,1.13,15.48,2.04,20.45,6.31,20.06,5.64-.53,9.19-8.17,19.35-18.66,52.01-53.7,143-149.77,192.1-200.73,24.83-25.02,53.38-75.56,70.74-107.27,37.02-67.6,58.64-142.9,57.83-240.93.74-18.45-.15-40.67-.15-40.67,0,0-25.52,17.57-38.23,34.13-10.58,13.42-13.65,29.42-14.47,46.21-1.19,14.74-2.68,30.43-5.38,46.12-5.14,25.2-12.11,54.97-23.56,80.68-6.09,13.66-13.7,24.69-24.09,33.91-40.33,35.82-96.04,66.15-151.11,56.61-13.19-2.28-40.03-8.03-40.03-8.03l18-4.14Z"/>
  </g>
</svg>